<?xml version="1.0" encoding="UTF-8"?>
<svg version="1.1" xmlns="http://www.w3.org/2000/svg" width="1748" height="1240">
<path d="M0 0 C7.63292328 -0.09322558 15.26578654 -0.16402886 22.8991518 -0.20724869 C26.44477451 -0.22800619 29.99000394 -0.25610231 33.53540039 -0.30175781 C37.62389616 -0.35406955 41.71198745 -0.37304276 45.80078125 -0.390625 C47.05643387 -0.41127014 48.31208649 -0.43191528 49.60578918 -0.45318604 C58.80739773 -0.45550192 67.99620268 0.53546852 74.875 7.25 C83.181117 17.97947341 85.21182417 36.05636036 88.5625 49.01953125 C89.08111222 51.01390009 89.60008125 53.00817617 90.11938477 55.00236511 C91.47547915 60.21364141 92.82696584 65.42610123 94.17736816 70.63885498 C95.54005768 75.89599751 96.90684014 81.15207535 98.2734375 86.40820312 C99.81786329 92.34874966 101.36197361 98.28937493 102.90258789 104.23091125 C105.91002985 115.82725911 108.94291535 127.41663852 112 139 C117.62761461 122.34997271 123.05095104 105.65439528 128.20303345 88.85055542 C129.28289138 85.33027586 130.3678192 81.81159036 131.45385742 78.29321289 C134.63273462 67.98844288 137.79948756 57.68022964 140.92453003 47.35899353 C142.10621026 43.4592222 143.29470364 39.56154476 144.48400879 35.66409302 C145.29326593 33.00079999 146.09157515 30.33438607 146.88964844 27.66772461 C147.38027607 26.05825306 147.87145322 24.44894888 148.36328125 22.83984375 C148.67786034 21.77026428 148.67786034 21.77026428 148.99879456 20.67907715 C150.81576127 14.80651695 153.57765616 9.86110862 158.25 5.8125 C158.77078125 5.34457031 159.2915625 4.87664063 159.828125 4.39453125 C167.41831243 -0.47902435 174.65450805 -0.4613429 183.4375 -0.375 C185.2019043 -0.39240234 185.2019043 -0.39240234 187.00195312 -0.41015625 C195.02932279 -0.38323383 201.69405804 0.49654537 208.6875 4.5625 C216.40707725 12.69935169 219.26276958 23.08625555 222.37890625 33.5625 C222.87241131 35.18492568 223.36714488 36.80697812 223.86302185 38.42868042 C225.17495094 42.73036039 226.47080073 47.0367237 227.7635498 51.34420013 C229.09744311 55.77821078 230.44663043 60.20755763 231.79492188 64.63720703 C233.65534398 70.75344818 235.5116984 76.87088836 237.36170006 82.99028969 C240.9179809 94.75307188 244.52978309 106.49793413 248.17843628 118.23242188 C249.22896738 121.61147871 250.2762276 124.99154513 251.32350159 128.37161255 C252.2148451 131.24799727 253.10732733 134.12402754 254 137 C255.68270885 133.9093701 256.6690984 130.91078511 257.56542969 127.51196289 C257.86093719 126.40016159 258.1564447 125.28836029 258.46090698 124.14286804 C258.77802643 122.93169815 259.09514587 121.72052826 259.421875 120.47265625 C259.75873322 119.20005447 260.09559143 117.9274527 260.44265747 116.61628723 C261.17035637 113.86698863 261.8952892 111.11698095 262.61810303 108.36639404 C263.75360388 104.0458375 264.89617646 99.72716984 266.03955078 95.40869141 C269.42753282 82.60441304 272.79664395 69.79526176 276.14013672 56.97929382 C277.41531614 52.09334714 278.69472159 47.20851104 279.97424316 42.32369995 C280.86145512 38.92685888 281.74094144 35.52807877 282.62011719 32.12915039 C283.16045962 30.06257183 283.70113037 27.99607906 284.2421875 25.9296875 C284.47898224 25.00444778 284.71577698 24.07920807 284.95974731 23.12593079 C286.67325431 16.62751108 288.46946649 10.85314174 293.6875 6.3125 C294.31011719 5.75175781 294.93273437 5.19101562 295.57421875 4.61328125 C303.24462767 -0.48797299 310.52588445 -0.40578551 319.46875 -0.29296875 C320.74480103 -0.28872391 322.02085205 -0.28447906 323.33557129 -0.28010559 C326.70261894 -0.26621934 330.06903876 -0.23933995 333.43591309 -0.20599365 C336.88169983 -0.17512035 340.32755185 -0.16156367 343.7734375 -0.14648438 C350.51579626 -0.11349903 357.25786194 -0.063362 364 0 C362.10685001 7.87940014 359.97224129 15.63331247 357.54296875 23.36328125 C357.0404081 24.97719757 357.0404081 24.97719757 356.5276947 26.62371826 C355.80014968 28.95876263 355.07107929 31.29333218 354.34063721 33.62747192 C353.15552431 37.41468326 351.97434186 41.20310839 350.79443359 44.99194336 C349.52660321 49.06242736 348.25852165 53.13283193 346.98895264 57.20277405 C342.24700722 72.40486602 337.53078673 87.61491137 332.81796646 102.82605362 C332.12278342 105.06965368 331.42742719 107.31319999 330.73202515 109.55673218 C323.54125234 132.75689254 316.38712736 155.96817735 309.25213623 179.18554688 C301.89005945 203.1410729 294.46131051 227.07514563 287 251 C266.87 251 246.74 251 226 251 C218.80234926 227.33304443 211.61072619 203.66427354 204.42654228 179.99322701 C202.61847166 174.0362782 200.80888326 168.07979216 198.99853516 162.12353516 C196.95477622 155.39900352 194.91405256 148.67355997 192.87740231 141.94687176 C191.83763357 138.51292005 190.79646924 135.0794067 189.75180054 131.64694214 C188.60082388 127.86495684 187.45632538 124.08102968 186.3125 120.296875 C185.97305862 119.1850032 185.63361725 118.07313141 185.28388977 116.92756653 C184.98008896 115.91860825 184.67628815 114.90964996 184.36328125 113.87011719 C184.09813721 112.99587097 183.83299316 112.12162476 183.55981445 111.22088623 C183 109 183 109 183 106 C182.34 106 181.68 106 181 106 C180.88355133 106.9899295 180.76710266 107.97985901 180.64712524 108.99978638 C180.05365404 113.12601459 178.9023602 117.03669255 177.64599609 121.00341797 C177.28649966 122.16103402 177.28649966 122.16103402 176.91974068 123.34203625 C176.12599129 125.89368149 175.32470534 128.44289422 174.5234375 130.9921875 C173.9592585 132.80114959 173.39558899 134.61027064 172.83239746 136.41954041 C171.63751851 140.25481534 170.43944378 144.08907041 169.2387085 147.92251587 C167.37433388 153.87476023 165.51662663 159.82906965 163.66064453 165.78393555 C163.20194379 167.25562085 163.20194379 167.25562085 162.73397636 168.75703716 C162.11866848 170.73123167 161.50338506 172.7054338 160.88812637 174.67964363 C159.97001823 177.6248379 159.0512184 180.56981567 158.1322937 183.51475525 C152.70102443 200.92628177 147.3523901 218.36205919 142.05224609 235.81396484 C141.77513794 236.72424942 141.49802979 237.634534 141.21252441 238.57240295 C140.71031465 240.22248858 140.20961064 241.87303367 139.71081543 243.52415466 C138.11228686 248.77542628 138.11228686 248.77542628 137 251 C117.2 251 97.4 251 77 251 C73.62577108 243.12679918 73.62577108 243.12679918 72.7109375 240.08789062 C72.49688766 239.38462646 72.28283783 238.6813623 72.06230164 237.95678711 C71.8354921 237.19760986 71.60868256 236.43843262 71.375 235.65625 C71.12035477 234.81715088 70.86570953 233.97805176 70.60334778 233.11352539 C70.03692848 231.24665521 69.47217666 229.37927851 68.90884399 227.51147461 C67.26575756 222.06707149 65.60726042 216.62736392 63.94921875 211.1875 C63.57415695 209.95640503 63.19909515 208.72531006 62.81266785 207.45690918 C57.50675713 190.06006286 52.09059866 172.69715972 46.69179153 155.32897949 C44.04828951 146.82393569 41.40660455 138.31832738 38.765625 129.8125 C38.47701662 128.88298523 38.18840824 127.95347046 37.89105415 126.99578857 C31.43418408 106.19734613 25.01721462 85.38670067 18.62719727 64.56762695 C18.43172208 63.93078507 18.23624689 63.2939432 18.03484821 62.63780308 C17.08452349 59.54170539 16.134242 56.44559447 15.18409729 53.34944153 C12.84132475 45.72117804 10.47952448 38.09904821 8.10546875 30.48046875 C7.25018888 27.72893092 6.39528231 24.97727739 5.54049683 22.22558594 C4.77981276 19.78322124 4.01324146 17.34276107 3.24633789 14.90234375 C2.80453609 13.48056634 2.36302645 12.05869809 1.921875 10.63671875 C1.54643555 9.43748779 1.17099609 8.23825684 0.78417969 7.00268555 C0 4 0 4 0 0 Z M17 13 C20.45643654 24.64181554 23.99127591 36.25828451 27.58203125 47.859375 C27.78787968 48.52450104 27.9937281 49.18962708 28.20581436 49.87490845 C29.28907019 53.3745064 30.37287531 56.873934 31.45690918 60.37329102 C38.79425268 84.06045873 46.07392278 107.76343105 53.25 131.5 C57.58768963 145.84414666 61.95768699 160.1673616 66.59307861 174.41841125 C69.15460073 182.31861706 71.63366163 190.24050589 74.05859375 198.18359375 C74.7954537 200.5875767 75.53235233 202.9915478 76.26928711 205.39550781 C77.74406621 210.21268175 79.21406411 215.03128781 80.68188477 219.85058594 C81.36077997 222.07098185 82.03973248 224.29136024 82.71875 226.51171875 C83.03496811 227.55500839 83.35118622 228.59829803 83.67698669 229.67320251 C83.96856155 230.62497879 84.26013641 231.57675507 84.56054688 232.55737305 C84.8154187 233.39447311 85.07029053 234.23157318 85.33288574 235.09403992 C85.83988603 236.98448728 85.83988603 236.98448728 87 238 C89.95705321 238.08868299 92.89065056 238.11520296 95.84765625 238.09765625 C96.7340831 238.0962413 97.62050995 238.09482635 98.53379822 238.09336853 C101.37673254 238.08775215 104.21958931 238.07519691 107.0625 238.0625 C108.98502491 238.05748711 110.90755104 238.05292384 112.83007812 238.04882812 C117.55341549 238.03777741 122.27669458 238.02050183 127 238 C131.72800374 224.07582779 136.16960374 210.09016452 140.375 196 C145.09168164 180.23916381 149.92251557 164.51641225 154.81408691 148.80895996 C156.79423823 142.44903596 158.76998348 136.08774297 160.74609375 129.7265625 C161.13371887 128.47881042 161.52134399 127.23105835 161.92071533 125.94549561 C162.70035223 123.43584253 163.47995438 120.92617866 164.25952148 118.41650391 C165.05710404 115.84936256 165.85490531 113.28229041 166.65307617 110.71533203 C167.83078843 106.92767989 169.00722169 103.1396311 170.18359375 99.3515625 C170.53876572 98.20998688 170.89393768 97.06841125 171.25987244 95.89224243 C172.89922267 90.61009938 174.51302737 85.32716645 176 80 C180.29 79.67 184.58 79.34 189 79 C189.11883545 80.16225098 189.2376709 81.32450195 189.36010742 82.52197266 C189.88787687 86.71026378 190.94293441 90.63778333 192.23828125 94.6484375 C192.47073044 95.38884781 192.70317963 96.12925812 192.94267273 96.8921051 C193.45463595 98.52131929 193.96955788 100.14960597 194.48706055 101.77706909 C195.96162989 106.41802642 197.41100417 111.06687217 198.86328125 115.71484375 C199.18475128 116.74201004 199.50622131 117.76917633 199.83743286 118.82746887 C204.09404935 132.45632542 208.2183022 146.12556342 212.35120773 159.79231262 C213.21479696 162.64771151 214.07899005 165.5029275 214.94315434 168.35815239 C217.04259809 175.29500776 219.14056309 182.23230941 221.23761082 189.16988945 C223.21487032 195.71116652 225.19335584 202.25207258 227.171875 208.79296875 C230.11656911 218.52804653 233.05820096 228.26404605 236 238 C249.53 238 263.06 238 277 238 C292.38968491 189.09684243 307.52079222 140.11511144 322.58398438 91.1105957 C323.41664664 88.40184931 324.24933055 85.69310957 325.08203125 82.984375 C325.28671146 82.31853079 325.49139168 81.65268658 325.70227432 80.96666527 C328.34281509 72.37756755 330.98977732 63.79048489 333.64451599 55.20576477 C335.1584776 50.30963724 336.67056892 45.41293296 338.18258667 40.51620483 C338.88968908 38.22831601 339.59778584 35.94073426 340.30691528 33.6534729 C341.27479302 30.53145923 342.23933421 27.40843355 343.203125 24.28515625 C343.63276802 22.9042984 343.63276802 22.9042984 344.0710907 21.49554443 C344.3276796 20.66178284 344.58426849 19.82802124 344.84863281 18.96899414 C345.072547 18.24571426 345.29646118 17.52243439 345.52716064 16.77723694 C346.085703 14.98438283 346.085703 14.98438283 346 13 C340.84052654 12.92559552 335.68136849 12.87127809 330.52148438 12.83520508 C328.76784827 12.82016005 327.01424953 12.79971896 325.26074219 12.77368164 C322.73362991 12.73710879 320.20701704 12.7202308 317.6796875 12.70703125 C316.51214432 12.68380547 316.51214432 12.68380547 315.3210144 12.66011047 C310.48214972 12.65862941 307.1644722 13.27352766 303 16 C300.54216176 18.82532164 299.41072669 21.29450023 298.44262695 24.89306641 C298.02318062 26.42862686 298.02318062 26.42862686 297.59526062 27.99520874 C297.29183243 29.14405548 296.98840424 30.29290222 296.67578125 31.4765625 C296.1715136 33.34521469 296.1715136 33.34521469 295.65705872 35.25161743 C294.65606833 38.96828073 293.66927521 42.68860261 292.68531036 46.4098053 C291.95576041 49.16720769 291.22364153 51.92391964 290.4911499 54.68054199 C286.97920057 67.90426456 283.49613345 81.13546176 280.02563477 94.37011719 C278.48571025 100.24187439 276.94000841 106.11209476 275.39298534 111.98198509 C274.18632562 116.56430571 272.98364586 121.1476642 271.78203773 125.7313118 C271.21379222 127.89634226 270.644139 130.06100382 270.07295799 132.22526169 C264.45595502 150.85764486 264.45595502 150.85764486 262 170 C257.71 170 253.42 170 249 170 C248.67644531 168.24429688 248.35289062 166.48859375 248.01953125 164.6796875 C245.67374143 153.2461757 241.82282386 142.17385813 238.30122757 131.06372833 C236.603212 125.69979968 234.91950248 120.33134821 233.23525047 114.96308517 C232.78987117 113.54354221 232.34426281 112.1240711 231.89843178 110.70466995 C228.45237255 99.72861427 225.07855604 88.73191719 221.7486248 77.72009659 C220.99622203 75.23209115 220.24276353 72.74440767 219.48902893 70.25680542 C217.28854965 62.99209449 215.09171418 55.72638418 212.91175461 48.4554863 C212.00621344 45.44169501 211.09365016 42.43006212 210.17930984 39.41893005 C209.75599878 38.01926932 209.3357259 36.61868545 208.91877365 35.21711731 C205.86814551 23.05026434 205.86814551 23.05026434 197.9140625 14.08203125 C193.18227701 12.43284628 188.3282453 12.60078352 183.375 12.6875 C182.446875 12.68427734 181.51875 12.68105469 180.5625 12.67773438 C174.36027984 12.72660574 170.18084208 12.8333668 165.60180664 17.38256836 C162.04804592 21.76450424 160.78100517 26.89837873 159.20703125 32.234375 C158.86324936 33.35643845 158.51946747 34.47850189 158.16526794 35.63456726 C157.03441559 39.33581872 155.92363619 43.04278691 154.8125 46.75 C154.02698285 49.33830606 153.23681863 51.92518394 152.44628906 54.51196289 C151.00530236 59.23146383 149.56888204 63.95230622 148.13819313 68.67493916 C144.29179454 81.36823499 140.35377859 94.03284316 136.41317749 106.69714355 C135.27845668 110.34599365 134.146204 113.99559936 133.01489258 117.64550781 C132.30685833 119.9290535 131.59877065 122.21258261 130.890625 124.49609375 C130.55480911 125.57907745 130.21899323 126.66206116 129.8730011 127.77786255 C128.33640127 132.72585025 126.7913298 137.67076349 125.22021484 142.60791016 C124.94522156 143.47255386 124.67022827 144.33719757 124.38690186 145.2280426 C123.88606468 146.79901199 123.38322227 148.36934448 122.87774658 149.93882751 C119.31083649 160.77508292 119.31083649 160.77508292 118 172 C113.71 172 109.42 172 105 172 C104.88422607 170.90494141 104.76845215 169.80988281 104.64916992 168.68164062 C103.98291345 163.40347687 102.82045079 158.27120547 101.61328125 153.09375 C101.35573563 151.9847937 101.09819 150.8758374 100.83283997 149.73327637 C96.84459596 132.82873525 92.34381049 116.05023581 87.91424561 99.25732422 C86.47411129 93.79335279 85.04030718 88.32771671 83.60530281 82.86239624 C82.43301852 78.39965188 81.25816728 73.93761335 80.0776062 69.47705078 C78.04501665 61.79443113 76.01943176 54.11100102 74.06249905 46.40869904 C73.25536712 43.23488813 72.43934759 40.06339477 71.62249184 36.89207458 C71.24617628 35.42039365 70.87433752 33.94755952 70.5073452 32.473526 C70.00492002 30.45647454 69.48722039 28.44392015 68.96606445 26.43164062 C68.68116653 25.30391235 68.39626862 24.17618408 68.10273743 23.01428223 C66.5091945 18.65840564 64.53659753 15.74930585 60.33349609 13.69970703 C56.05481487 12.80160388 52.02300052 12.75137431 47.6640625 12.8046875 C46.78471039 12.8075174 45.90535828 12.81034729 44.99935913 12.81326294 C42.20776406 12.82440288 39.4164971 12.84949589 36.625 12.875 C34.72526507 12.8850378 32.82552508 12.89416225 30.92578125 12.90234375 C26.28372893 12.92432194 21.64191998 12.9588089 17 13 Z " fill="#000000" transform="translate(22,569)"/>
<path d="M0 0 C62.90693054 0 62.90693054 0 69.29418945 6.19506836 C72.08275108 9.85948556 74.2472355 13.76420057 76.29296875 17.87890625 C76.86887001 19.00802681 76.86887001 19.00802681 77.45640564 20.15995789 C78.70948791 22.62283907 79.9485662 25.09247563 81.1875 27.5625 C82.06612956 29.29628631 82.94553706 31.02967859 83.82568359 32.76269531 C86.56575642 38.16748246 89.28577382 43.58219454 92 49 C92.43640808 49.87106384 92.87281616 50.74212769 93.32244873 51.6395874 C97.07449823 59.1322542 100.81961297 66.62837187 104.55541992 74.12915039 C108.29322255 81.62889359 112.05684859 89.10556043 116 96.5 C119.35609768 102.81786819 122.62407342 109.17408763 125.8203125 115.57421875 C126.46551346 116.8633593 126.46551346 116.8633593 127.12374878 118.17854309 C131.42678302 126.78022865 135.71588075 135.38888072 140 144 C150.48069572 123.65290966 160.93255945 103.29476604 171.08959961 82.78369141 C174.58350807 75.74227911 178.16550721 68.75750621 181.84765625 61.8125 C185.3861675 55.1343684 188.82320902 48.41402124 192.17578125 41.640625 C192.59994324 40.78442566 193.02410522 39.92822632 193.46112061 39.04608154 C195.18730589 35.55749729 196.9107774 32.06761926 198.62719727 28.57421875 C199.90877535 25.96862149 201.19797258 23.36690742 202.48828125 20.765625 C202.86857986 19.98640686 203.24887848 19.20718872 203.64070129 18.40435791 C207.4732833 10.70319538 211.02135093 4.77172502 219 1 C239.05221941 -4.01305485 260.33064534 0 281 0 C281 82.83 281 165.66 281 251 C260.54 251 240.08 251 219 251 C218.67 207.11 218.34 163.22 218 118 C211.4 130.87 204.8 143.74 198 157 C190.6875 171.125 190.6875 171.125 187.37890625 177.46875 C185.2514196 181.55895785 183.15647583 185.6634311 181.09107971 189.78518677 C179.76511032 192.42863832 178.42906172 195.0669402 177.09243774 197.70501709 C176.46030514 198.95955136 175.83295149 200.21650818 175.21102905 201.47613525 C170.39762819 211.22071221 165.22857087 220.67290251 154.95703125 225.34375 C145.05275952 228.66494291 133.2088905 228.13270726 123.52734375 224.4609375 C115.25230179 219.67752839 111.55804732 213.40093746 107.25 205 C106.64510742 203.84878662 106.04021484 202.69757324 105.41699219 201.51147461 C100.66551504 192.44995664 96.0965673 183.2948133 91.55859375 174.125 C89.21224594 169.39884801 86.78004664 164.72661478 84.3125 160.0625 C77.11262983 146.42509886 70.07287521 132.70369572 63 119 C62.67 162.56 62.34 206.12 62 251 C41.54 251 21.08 251 0 251 C0 168.17 0 85.34 0 0 Z M13 13 C13 87.25 13 161.5 13 238 C24.55 238 36.1 238 48 238 C48.02255193 218.47696977 48.04098205 198.95395005 48.05181217 179.43091011 C48.05697389 170.36653299 48.06401423 161.30216453 48.07543945 152.23779297 C48.08539008 144.33956868 48.09185434 136.44135065 48.09408849 128.54312027 C48.09539495 124.3590218 48.09847675 120.17494127 48.10573006 115.99084854 C48.11249623 112.05603628 48.11461573 108.12124941 48.11310768 104.18643188 C48.11338374 102.7391941 48.11538533 101.29195551 48.11920547 99.84472275 C48.12415195 97.87485105 48.12239538 95.90496586 48.12025452 93.93508911 C48.12163721 92.27862712 48.12163721 92.27862712 48.12304783 90.58870125 C48.17547385 88.01407879 48.17547385 88.01407879 47 86 C48.41538717 85.66127487 49.83237963 85.32925376 51.25 85 C52.03890625 84.814375 52.8278125 84.62875 53.640625 84.4375 C56 84 56 84 60 84 C60.28085449 84.5669458 60.56170898 85.1338916 60.85107422 85.71801758 C62.19001699 88.4173588 63.53252286 91.1149149 64.875 93.8125 C65.53628906 95.14764648 65.53628906 95.14764648 66.2109375 96.50976562 C69.2853458 102.67993228 72.45835037 108.79248666 75.6796875 114.88671875 C80.80567096 124.58744785 85.80600988 134.34992956 90.78591919 144.12628174 C93.29543451 149.05199346 95.80970554 153.9752757 98.32421875 158.8984375 C98.81599106 159.86131683 99.30776337 160.82419617 99.81443787 161.81625366 C103.8754013 169.76379981 107.95625989 177.70075724 112.0625 185.625 C112.59069336 186.6459375 113.11888672 187.666875 113.66308594 188.71875 C115.09924224 191.48426429 116.54764289 194.2429662 118 197 C118.77126221 198.4864502 118.77126221 198.4864502 119.55810547 200.00292969 C120.0738916 200.97907227 120.58967773 201.95521484 121.12109375 202.9609375 C121.80643188 204.26877197 121.80643188 204.26877197 122.50561523 205.60302734 C124.860476 209.38019169 126.97490535 211.58996214 131.125 213.25 C138.13798021 214.60735101 145.35881691 214.93744637 152 212 C158.42369655 205.72461391 161.96891743 197.80228411 165.9375 189.875 C166.68906618 188.39205161 167.44168749 186.90963754 168.1953125 185.42773438 C169.73154826 182.40524962 171.26354172 179.38067422 172.79248047 176.35449219 C175.98415475 170.04672725 179.24290696 163.77418515 182.5 157.5 C183.72702591 155.13044643 184.9537154 152.76072348 186.1796875 150.390625 C186.48692245 149.79675995 186.79415741 149.2028949 187.11070251 148.59103394 C189.49805513 143.97471037 191.8790136 139.35511131 194.2578125 134.734375 C194.61772781 134.03530533 194.97764313 133.33623566 195.34846497 132.61598206 C197.15555558 129.10564616 198.96187457 125.59491536 200.76733398 122.08374023 C204.14449046 115.51940541 207.53500738 108.96276716 210.96484375 102.42578125 C211.87919189 100.68022949 211.87919189 100.68022949 212.81201172 98.89941406 C213.95198607 96.72630815 215.09537027 94.55498649 216.24267578 92.38574219 C216.74138184 91.43473633 217.24008789 90.48373047 217.75390625 89.50390625 C218.40854858 88.26362671 218.40854858 88.26362671 219.07641602 86.99829102 C220.13984779 85.06432204 220.13984779 85.06432204 220 83 C220.68707031 83.2165625 221.37414063 83.433125 222.08203125 83.65625 C222.98308594 83.9346875 223.88414062 84.213125 224.8125 84.5 C225.70582031 84.7784375 226.59914063 85.056875 227.51953125 85.34375 C230.05573395 86.12788351 230.05573395 86.12788351 233 86 C232.83748025 86.86079981 232.6749605 87.72159962 232.50751591 88.60848427 C232.01622277 91.89159005 231.87689139 94.94779734 231.87974548 98.26425171 C231.87837082 99.50096619 231.87699615 100.73768066 231.87557983 102.01187134 C231.87911824 103.36907984 231.88275304 104.72628809 231.88647461 106.08349609 C231.8867569 107.52278644 231.88659793 108.96207693 231.8860321 110.40136719 C231.88574575 114.29759453 231.89161628 118.19379095 231.89860606 122.09001112 C231.90486659 126.16593232 231.90544553 130.24185427 231.90663147 134.31777954 C231.90973683 142.03118422 231.9179395 149.74457469 231.92798096 157.45797312 C231.93916679 166.24149821 231.94465877 175.02502398 231.94967639 183.80855441 C231.96012278 201.8723793 231.97845837 219.9361847 232 238 C243.88 238 255.76 238 268 238 C268 163.75 268 89.5 268 13 C242.8577189 10.3760028 242.8577189 10.3760028 220 16 C218.64960512 17.71712002 218.64960512 17.71712002 217.75512695 19.7109375 C217.38736649 20.45021484 217.01960602 21.18949219 216.64070129 21.95117188 C216.07025337 23.1509668 216.07025337 23.1509668 215.48828125 24.375 C215.07515182 25.21353516 214.6620224 26.05207031 214.2363739 26.91601562 C212.91503483 29.60436814 211.61315699 32.30158962 210.3125 35 C208.60502897 38.50233868 206.89021775 42.00106697 205.17578125 45.5 C204.74746002 46.37769043 204.31913879 47.25538086 203.87783813 48.15966797 C200.63158049 54.78806354 197.23100521 61.32303223 193.76826477 67.84033203 C188.83977875 77.14039461 184.17771087 86.57205561 179.5 96 C173.91690925 107.25274106 168.27163655 118.45890903 162.39297485 129.56056213 C159.44392872 135.13531846 156.57366757 140.73636925 153.875 146.4375 C153.47104004 147.28803955 153.06708008 148.1385791 152.65087891 149.01489258 C144.84903619 163.50013101 144.84903619 163.50013101 141 179 C140.34 179 139.68 179 139 179 C138.81449585 177.92262573 138.81449585 177.92262573 138.62524414 176.82348633 C137.53128981 171.88339189 135.39035295 167.34116896 133.4375 162.6875 C133.03208984 161.69943359 132.62667969 160.71136719 132.20898438 159.69335938 C128.9274926 151.82883468 125.18694473 144.23934513 121.33560181 136.64523315 C118.8570464 131.73631727 116.41084614 126.811199 113.95888329 121.8889637 C112.01716734 117.99256069 110.07195118 114.09790398 108.12736034 110.20293522 C106.46129228 106.8655518 104.79595841 103.52780641 103.13232422 100.18920898 C96.68377036 87.24937911 90.23633041 74.31554877 83.44763184 61.54957581 C80.62148494 56.22268905 77.89970155 50.85051799 75.2265625 45.4453125 C74.84376129 44.67183975 74.46096008 43.898367 74.06655884 43.10145569 C72.52117472 39.97445179 70.97861523 36.84610631 69.44287109 33.71435547 C68.29283293 31.37196687 67.13526303 29.03342547 65.9765625 26.6953125 C65.46399399 25.64224411 65.46399399 25.64224411 64.94107056 24.56790161 C61.65728615 17.72735008 61.65728615 17.72735008 56 13 C41.81 13 27.62 13 13 13 Z " fill="#000000" transform="translate(1234,569)"/>
<path d="M0 0 C55.11 0 110.22 0 167 0 C167 18.48 167 36.96 167 56 C134.66 56 102.32 56 69 56 C69 69.86 69 83.72 69 98 C93.75 98 118.5 98 144 98 C144 115.82 144 133.64 144 152 C119.25 152 94.5 152 69 152 C69 166.52 69 181.04 69 196 C101.34 196 133.68 196 167 196 C167 214.15 167 232.3 167 251 C111.89 251 56.78 251 0 251 C0 168.17 0 85.34 0 0 Z M13 13 C13 87.25 13 161.5 13 238 C59.53 238 106.06 238 154 238 C154 228.43 154 218.86 154 209 C121.66 209 89.32 209 56 209 C56 185.9 56 162.8 56 139 C80.75 139 105.5 139 131 139 C131 129.76 131 120.52 131 111 C106.25 111 81.5 111 56 111 C56 88.56 56 66.12 56 43 C88.34 43 120.68 43 154 43 C154 33.1 154 23.2 154 13 C107.47 13 60.94 13 13 13 Z " fill="#000000" transform="translate(394,569)"/>
<path d="M0 0 C54.78 0 109.56 0 166 0 C166 18.48 166 36.96 166 56 C133.66 56 101.32 56 68 56 C68 69.86 68 83.72 68 98 C92.75 98 117.5 98 143 98 C143 115.82 143 133.64 143 152 C118.25 152 93.5 152 68 152 C68 166.52 68 181.04 68 196 C100.34 196 132.68 196 166 196 C166 214.15 166 232.3 166 251 C111.22 251 56.44 251 0 251 C0 168.17 0 85.34 0 0 Z M13 13 C13 87.25 13 161.5 13 238 C59.2 238 105.4 238 153 238 C153 228.43 153 218.86 153 209 C120.66 209 88.32 209 55 209 C55 185.9 55 162.8 55 139 C79.75 139 104.5 139 130 139 C130 129.76 130 120.52 130 111 C105.25 111 80.5 111 55 111 C55 88.56 55 66.12 55 43 C87.34 43 119.68 43 153 43 C153 33.1 153 23.2 153 13 C106.8 13 60.6 13 13 13 Z " fill="#000000" transform="translate(1548,569)"/>
<path d="M0 0 C1.22396484 1.08861328 1.22396484 1.08861328 2.47265625 2.19921875 C6.69179032 6.11440148 6.69179032 6.11440148 8 8 C7.56174676 11.36793397 6.12546553 13.50678101 4.12109375 16.1953125 C3.53328125 16.98921387 2.94546875 17.78311523 2.33984375 18.60107422 C1.71207031 19.43396973 1.08429688 20.26686523 0.4375 21.125 C-0.19929687 21.97723145 -0.83609375 22.82946289 -1.4921875 23.70751953 C-3.31964017 26.14489848 -5.15740057 28.57405979 -7 31 C-7.44456543 31.58845703 -7.88913086 32.17691406 -8.34716797 32.78320312 C-17.49143965 44.83047988 -17.49143965 44.83047988 -24 47 C-35.23244656 48.52206394 -42.89851975 43.57363555 -52.125 37.8125 C-64.46105774 30.2484967 -80.23612482 29.13808919 -94.18652344 32.12792969 C-104.00663635 34.49349404 -112.24050693 38.30168844 -119 46 C-119.45632813 46.45375 -119.91265625 46.9075 -120.3828125 47.375 C-134.81190524 62.48399764 -136.62281608 83.58617473 -136.47070312 103.37353516 C-135.99556131 122.66985306 -130.95104852 140.87171493 -117 155 C-102.14220817 167.82144473 -85.73256672 168.94322074 -67 168 C-55.18993256 166.48343927 -46.69410788 160.72829828 -37.3828125 153.671875 C-33.82933771 151.17861728 -30.9332431 150.79907554 -26.6875 150.6875 C-25.30111328 150.63142578 -25.30111328 150.63142578 -23.88671875 150.57421875 C-15.93808358 151.74661555 -10.35008532 159.38767084 -5 164.8125 C-4.1234375 165.68970703 -3.246875 166.56691406 -2.34375 167.47070312 C2.31373121 172.15974859 6.78043611 176.91292709 11 182 C9.57010688 186.46943736 7.11128237 189.46413798 3.9375 192.8125 C3.44507813 193.33803467 2.95265625 193.86356934 2.4453125 194.4050293 C-19.1692904 217.20997127 -48.03184143 227.26616426 -79.04296875 228.125 C-114.67631407 228.78734441 -146.51867225 218.66661152 -172.625 193.6875 C-197.93427285 167.56760987 -207.43363576 132.0641753 -207.30029297 96.49365234 C-206.9131768 73.35387075 -201.5528099 51.13278136 -190 31 C-189.65066406 30.38930664 -189.30132813 29.77861328 -188.94140625 29.14941406 C-174.20406841 3.87191061 -149.956655 -14.89719065 -121.9375 -23.3125 C-80.97872715 -33.8915659 -32.2660213 -30.19838419 0 0 Z M-162.75 16.1875 C-178.47386059 32.15918487 -187.39031133 52.30734744 -192 74 C-192.24621094 75.1446875 -192.49242187 76.289375 -192.74609375 77.46875 C-198.08996633 107.836688 -192.44286486 141.90854215 -176.0234375 168.16015625 C-157.80046024 193.96999058 -133.88710487 208.63330827 -103 214 C-99.31926158 214.56590164 -95.72104874 214.88096784 -92 215 C-90.81535156 215.03996094 -89.63070312 215.07992187 -88.41015625 215.12109375 C-69.87503037 215.43092378 -50.70976614 213.6253649 -34 205 C-33.11828125 204.55785156 -32.2365625 204.11570312 -31.328125 203.66015625 C-24.99349104 200.36159685 -19.50554292 196.52875305 -14 192 C-13.05125 191.29875 -12.1025 190.5975 -11.125 189.875 C-8.77673427 187.80300082 -7.54936241 185.70031734 -6 183 C-6.4031543 182.60208252 -6.80630859 182.20416504 -7.22167969 181.79418945 C-9.06714477 179.96965943 -10.90859013 178.1411223 -12.75 176.3125 C-13.38421875 175.68666016 -14.0184375 175.06082031 -14.671875 174.41601562 C-15.290625 173.80048828 -15.909375 173.18496094 -16.546875 172.55078125 C-17.15337891 171.94959473 -17.75988281 171.3484082 -18.38476562 170.72900391 C-20 169 -20 169 -22.015625 165.98046875 C-23.93341149 163.61099031 -23.93341149 163.61099031 -27.39453125 163.921875 C-31.37027677 165.11072198 -33.52818623 166.58859761 -36.6875 169.25 C-49.35860348 179.20021734 -62.64544829 181.35658507 -78.375 181.3125 C-79.51710938 181.32861328 -80.65921875 181.34472656 -81.8359375 181.36132812 C-92.44094992 181.3673537 -101.92785485 179.49171114 -111.375 174.625 C-112.49648438 174.06039062 -113.61796875 173.49578125 -114.7734375 172.9140625 C-117.2362689 171.45306082 -119.14943426 170.11240326 -121.2890625 168.2734375 C-123.66573617 165.78580985 -123.66573617 165.78580985 -126 166 C-126.39832031 165.11248047 -126.39832031 165.11248047 -126.8046875 164.20703125 C-128.03079183 161.9431458 -129.32240115 160.5110593 -131.125 158.6875 C-149.56646273 137.864015 -150.2354186 109.2972483 -149 83 C-148.37919473 76.77781512 -146.98494713 70.91858666 -145 65 C-144.78569336 64.33774414 -144.57138672 63.67548828 -144.35058594 62.99316406 C-141.34091672 53.94663285 -137.17670827 46.28622809 -131 39 C-130.34515625 38.20980469 -129.6903125 37.41960937 -129.015625 36.60546875 C-118.15955831 24.62706434 -102.04209155 18.63701807 -86.16015625 17.796875 C-70.15903359 17.49133179 -56.36575206 19.91404042 -42.390625 28.1015625 C-41.76623535 28.46612549 -41.1418457 28.83068848 -40.49853516 29.20629883 C-39.27693637 29.92757379 -38.06256848 30.6612821 -36.85693359 31.40893555 C-33.4595503 33.44961934 -30.9732959 34.78393865 -27 34 C-19.62592407 28.22898405 -14.31560424 18.65752004 -9 11 C-27.08879337 -7.62923184 -54.16703242 -15.48456369 -79.60986328 -16.00244141 C-111.06865285 -15.97030781 -140.07244115 -5.90558568 -162.75 16.1875 Z " fill="#000000" transform="translate(947,595)"/>
<path d="M0 0 C0.56203125 0.43957031 1.1240625 0.87914062 1.703125 1.33203125 C24.32342663 19.13063701 36.16249257 50.06887728 40.5625 77.5078125 C42.53724726 94.23919843 42.17304713 112.66117435 38 129 C37.83371094 129.68239746 37.66742187 130.36479492 37.49609375 131.06787109 C30.11078445 160.91682951 11.55527821 188.86256171 -15 205 C-48.73951618 224.42336386 -87.73377373 230.55153072 -125.6875 220.75 C-144.19014573 215.68594052 -161.51029217 207.7311279 -176 195 C-176.80566406 194.33742188 -177.61132812 193.67484375 -178.44140625 192.9921875 C-196.36717991 177.78754067 -208.43212616 156.29415592 -214.8125 133.875 C-215.00739014 133.19606689 -215.20228027 132.51713379 -215.40307617 131.81762695 C-224.57474587 97.45519236 -219.28588636 59.8460927 -202.13134766 28.92431641 C-190.00668057 8.30139324 -172.38678493 -7.43390983 -151 -18 C-150.154375 -18.42796875 -149.30875 -18.8559375 -148.4375 -19.296875 C-100.47870163 -42.41986707 -40.37750266 -33.96720571 0 0 Z M-174.37011719 14.37451172 C-195.9840244 35.93014297 -206.17191154 65.79486655 -206.25 95.875 C-206.22173643 123.55916732 -198.77241581 150.96320718 -180 172 C-179.33742188 172.804375 -178.67484375 173.60875 -177.9921875 174.4375 C-158.764719 197.14152185 -130.94833794 208.14775348 -102 211.6875 C-69.30656119 214.30297511 -37.11060304 206.8093682 -11.35546875 185.84765625 C5.57485028 171.04988125 17.34006327 152.8581368 23.8125 131.375 C24.0074707 130.73135498 24.20244141 130.08770996 24.40332031 129.42456055 C33.29505776 97.89182497 28.33375455 63.74531994 12.5 35.375 C9.10091912 29.88536823 5.16520256 24.92251212 1 20 C0.52046875 19.38640625 0.0409375 18.7728125 -0.453125 18.140625 C-16.99495757 -2.58419971 -45.2513144 -14.56329304 -70.95703125 -17.8203125 C-109.41827294 -21.94492315 -145.96052724 -12.46770917 -174.37011719 14.37451172 Z " fill="#000000" transform="translate(1173,598)"/>
<path d="M0 0 C22.44 0 44.88 0 68 0 C68 64.02 68 128.04 68 194 C97.04 194 126.08 194 156 194 C156 212.81 156 231.62 156 251 C104.52 251 53.04 251 0 251 C0 168.17 0 85.34 0 0 Z M13 13 C13 87.25 13 161.5 13 238 C55.9 238 98.8 238 143 238 C143 227.77 143 217.54 143 207 C113.96 207 84.92 207 55 207 C55 142.98 55 78.96 55 13 C41.14 13 27.28 13 13 13 Z " fill="#000000" transform="translate(582,569)"/>
<path d="M0 0 C16.027146 13.43022352 24.04829511 34.25505005 26.29541016 54.69165039 C26.38702248 56.44036804 26.44764304 58.19088985 26.48291016 59.94165039 C26.52158203 61.07473633 26.56025391 62.20782227 26.60009766 63.37524414 C27.04180649 86.95758816 22.08400576 112.15987342 5.48291016 129.94165039 C4.86416016 130.61325195 4.24541016 131.28485352 3.60791016 131.97680664 C-10.60817319 145.95057038 -30.415064 150.19926879 -49.67724609 150.19042969 C-68.19991504 149.95620016 -86.09073964 144.05267972 -99.76708984 131.19165039 C-114.50109672 115.52549206 -120.81470481 94.04373986 -121.51708984 72.94165039 C-121.55705078 72.1024707 -121.59701172 71.26329102 -121.63818359 70.39868164 C-122.26150878 46.16233167 -116.2512818 23.12177777 -100.12255859 4.60180664 C-74.81273794 -21.23925462 -27.71550301 -22.0825722 0 0 Z M-90.56005859 13.71899414 C-100.20675761 24.67502556 -105.15052782 37.72584379 -107.51708984 51.94165039 C-107.66146484 52.79887695 -107.80583984 53.65610352 -107.95458984 54.53930664 C-110.53577692 74.89841971 -107.70090126 98.75222665 -95.28466797 115.61547852 C-85.21342021 128.29058527 -72.60370986 134.84078584 -56.51708984 136.94165039 C-38.48471243 138.10113499 -21.38913073 135.80092662 -7.20458984 123.69165039 C7.47136506 109.60367445 12.77436194 90.83609693 13.60791016 70.96118164 C14.01408964 50.11909701 9.48955008 28.4882117 -5.29052734 12.93774414 C-18.18193424 1.38071094 -33.65381286 -2.60999752 -50.62255859 -2.30053711 C-65.60626867 -1.36875173 -79.56245157 3.12946159 -90.56005859 13.71899414 Z " fill="#000000" transform="translate(1131.51708984375,627.058349609375)"/>
</svg>
